<?xml version="1.0" encoding="utf-8"?>
<svg viewBox="1 39.0865 1775.9131 627.511" width="1775.913px" height="627.511px" xmlns="http://www.w3.org/2000/svg">
  <path fill="#8D9091" opacity="1.000000" stroke="none" d=" M8.264387,666.556885 C5.995839,666.688477 3.872841,666.487000 1.374921,666.142700 C1.000000,520.645752 1.000000,375.291534 0.999999,229.468658 C1.668854,228.249557 2.753641,227.592392 2.945871,226.735077 C8.041218,204.010681 17.296707,183.168289 30.454794,163.939697 C44.057579,144.061264 61.330021,128.227463 81.981216,116.035477 C103.450813,103.360298 126.659904,95.571861 151.306931,91.963928 C154.691284,91.468521 158.022705,90.621483 161.398239,90.053818 C167.714905,88.991508 172.164520,91.241600 173.540085,97.304359 C174.521179,101.628601 173.995743,106.298203 174.104538,110.814598 C174.136520,112.142372 174.005936,113.473259 174.005066,114.802750 C173.996628,127.632637 174.086121,140.463425 173.952850,153.291916 C173.906799,157.726105 173.478134,162.175034 172.925507,166.579758 C172.410355,170.685944 167.503891,174.323990 162.615845,175.026688 C146.938553,177.280365 132.139496,182.054718 118.713440,190.676315 C102.789207,200.902130 93.957687,216.006149 89.027664,233.781662 C88.203659,236.752686 87.299759,239.778778 87.092072,242.824402 C86.817604,246.849319 88.668816,248.120224 92.205994,246.249557 C103.136963,240.468628 114.835442,237.006287 126.856468,234.658234 C135.026825,233.062347 143.324280,232.073624 151.593781,231.045609 C156.328094,230.457077 161.115967,230.162369 165.887344,230.044907 C171.394577,229.909348 172.739273,231.364136 172.993866,236.957321 C173.031708,237.788727 172.999954,238.623291 172.999969,239.456406 C173.000015,268.115356 173.000000,296.774323 173.000000,325.433289 C173.000000,327.188171 173.000000,328.943054 173.000000,331.043823 C164.955307,326.478699 157.626221,321.969391 149.989059,318.062225 C136.111755,310.962524 121.262505,308.058167 105.697533,309.012543 C90.430321,309.948730 79.096710,318.024017 70.184464,329.648315 C57.400700,346.322266 55.262203,365.399567 59.749512,385.288727 C65.924965,412.660309 75.521675,438.976074 85.538193,465.138184 C86.453003,467.527527 86.955360,470.239990 86.935463,472.796844 C86.702606,502.724304 87.080620,532.687195 85.624222,562.559143 C85.057228,574.188721 81.187668,585.940002 77.205032,597.056396 C70.640114,615.380554 59.889114,631.333801 45.158852,644.248230 C34.289684,653.777466 22.437822,661.874756 8.264387,666.556885 z" transform="matrix(1, 0, 0, 1, 0, 1.4210854715202004e-14)"/>
  <path fill="#186EB7" opacity="1.000000" stroke="none" d=" M338.773621,39.467064 C340.382477,39.114189 341.785645,39.068520 343.604706,39.091385 C351.015442,41.931156 352.975494,47.714314 352.981750,54.500687 C353.018768,94.657578 353.000000,134.814514 353.000000,174.971436 C353.000000,241.455307 353.106781,307.939453 352.937714,374.422882 C352.884003,395.541321 349.449280,416.296021 343.117615,436.414581 C338.954803,449.641632 334.402771,462.860901 328.613312,475.433563 C320.566956,492.907349 310.079865,508.944641 297.214935,523.491760 C282.622986,539.991699 265.936340,553.575623 246.213516,563.282043 C233.051575,569.759521 219.051804,573.763367 204.391022,574.957703 C193.205444,575.868958 181.911499,577.453979 170.794937,576.736816 C154.298309,575.672668 137.839096,573.299438 121.513992,570.582092 C111.902611,568.982300 102.630119,565.432800 93.104477,563.187561 C89.472900,562.331482 88.890602,560.534485 88.938789,557.300842 C89.100136,546.472534 89.000015,535.640320 89.000015,524.809631 C89.000015,508.776154 89.000023,492.742676 89.000023,476.709198 C89.700668,476.597076 90.401314,476.484955 91.101952,476.372833 C92.398804,479.393494 93.386696,482.597107 95.047668,485.402161 C101.205887,495.802124 107.194618,506.340698 114.048347,516.274353 C117.454773,521.211548 121.527061,520.436218 123.583878,514.588440 C127.199409,504.309113 130.150833,493.775787 132.949188,483.234314 C137.059967,467.748932 140.444214,452.076080 149.760788,438.514099 C158.779449,425.385742 174.134415,419.702087 189.083542,424.599457 C196.593170,427.059601 201.176636,432.919891 204.775269,439.516327 C211.280411,451.440399 213.812988,464.667175 217.079376,477.677734 C220.054474,489.527954 223.149597,501.398773 227.177170,512.915955 C229.808090,520.439270 233.768311,520.787903 239.266724,515.208740 C249.632599,504.690674 256.344788,491.653900 261.554657,478.279327 C268.590881,460.216125 274.303040,441.560608 279.378906,422.832825 C284.023895,405.694702 287.116638,388.095581 285.955231,370.157166 C284.491821,347.554474 275.872925,328.533447 255.830124,316.615387 C244.358078,309.793823 231.529541,309.376282 218.570587,312.720917 C206.523209,315.830261 195.656372,321.322021 185.395432,328.206848 C183.863632,329.234650 182.080765,329.888275 180.001328,330.919739 C180.001328,301.549255 179.967407,272.893982 180.045853,244.238998 C180.055267,240.801331 180.633911,237.360703 181.023453,233.929947 C181.377533,230.811462 183.457397,229.558426 186.269623,230.048615 C195.766876,231.703979 205.307297,233.225540 214.687805,235.413208 C234.429245,240.017212 252.804520,248.252350 270.814636,257.367249 C279.079041,261.549835 282.127289,259.655548 281.964264,250.238602 C281.789307,240.132812 281.025269,230.030518 281.070221,219.929153 C281.142609,203.659760 281.039825,187.349548 282.146027,171.134003 C283.887512,145.606979 285.896576,120.030388 292.066132,95.084236 C296.806641,75.916451 305.914825,59.141872 322.324768,47.421772 C327.115875,43.999924 333.119873,42.276295 338.773621,39.467064 z" transform="matrix(1, 0, 0, 1, 0, 1.4210854715202004e-14)"/>
  <path fill="#186EB7" opacity="1.000000" stroke="none" d=" M543.717285,479.642822 C533.832031,492.861023 521.044922,501.697021 505.966614,506.821045 C498.158844,509.474304 489.788391,511.432800 481.589233,511.787537 C459.516632,512.742432 437.399475,512.668701 415.299896,512.996460 C413.472870,513.023560 411.645111,513.000000 409.409790,513.000000 C409.409790,458.105591 409.409790,403.401886 409.409790,348.230682 C410.887543,348.157806 412.487427,348.011719 414.087402,348.010284 C432.415833,347.994171 450.754150,347.626648 469.069641,348.113495 C484.839111,348.532684 500.631195,350.067749 514.949585,357.535248 C538.465088,369.799316 553.824585,388.432007 557.978577,415.173370 C560.818787,433.457153 559.367981,451.307312 550.914673,468.100525 C548.938721,472.025970 546.268494,475.601898 543.717285,479.642822 M502.910065,391.445923 C485.194275,378.397644 464.888000,382.668640 445.279724,382.038055 C445.279724,414.726105 445.279724,446.637421 445.279724,478.021851 C457.946167,478.021851 470.490601,479.310272 482.669098,477.747406 C506.332245,474.710693 520.051086,455.685822 520.966675,433.096619 C521.632202,416.675568 516.133240,402.743225 502.910065,391.445923 z" transform="matrix(1, 0, 0, 1, 0, 1.4210854715202004e-14)"/>
  <path fill="#186EB7" opacity="1.000000" stroke="none" d=" M1451.749756,171.749939 C1462.655151,160.378052 1475.746704,156.042313 1491.047607,155.813156 C1506.408569,155.583099 1518.735229,161.190155 1529.874390,173.302780 C1529.874390,152.332581 1529.874390,132.964096 1529.874390,113.301498 C1541.999634,113.301498 1553.595703,113.301498 1565.596924,113.301498 C1565.596924,169.913284 1565.596924,226.622070 1565.596924,283.665894 C1553.945312,283.665894 1542.232300,283.665894 1530.120483,283.665894 C1530.120483,278.605438 1530.120483,273.684448 1530.120483,267.815521 C1528.390625,269.348175 1527.253418,270.184326 1526.321777,271.207550 C1516.616699,281.867645 1504.726562,286.440186 1490.191772,286.218658 C1478.824585,286.045410 1468.668945,283.034576 1459.567749,276.884308 C1446.614502,268.130981 1438.692993,255.584167 1435.722412,240.266861 C1432.140747,221.799118 1432.436035,203.469421 1441.091064,186.266418 C1443.700806,181.079483 1447.981934,176.733459 1451.749756,171.749939 M1492.605103,254.193726 C1503.756470,256.852753 1513.520508,254.368683 1521.039917,245.591309 C1531.938721,232.869278 1532.882324,218.247910 1526.033447,203.752487 C1518.852661,188.554474 1504.817261,183.627365 1490.793945,188.331635 C1480.773071,191.693207 1474.630249,199.535385 1471.509644,209.853729 C1466.385498,226.796585 1474.032104,248.495743 1492.605103,254.193726 z" transform="matrix(1, 0, 0, 1, 0, 1.4210854715202004e-14)"/>
  <path fill="#186EB7" opacity="1.000000" stroke="none" d=" M1347.306152,346.653961 C1365.917236,348.612823 1381.319458,356.345612 1394.337646,368.981506 C1395.199463,369.818024 1395.762695,372.382416 1395.187256,373.063049 C1388.063599,381.488678 1380.702637,389.713562 1373.022827,398.420776 C1359.061035,385.097626 1342.853638,377.430054 1323.359619,380.189819 C1312.222778,381.766418 1303.133545,387.899750 1295.975464,396.579834 C1279.641968,416.386414 1282.083984,448.917725 1297.702515,466.471588 C1313.740479,484.496857 1347.348145,489.289215 1373.549805,462.475616 C1381.272583,470.216797 1389.004272,477.966858 1397.236572,486.218719 C1392.587769,492.550598 1385.900757,498.387848 1378.380371,502.696381 C1349.470215,519.259644 1319.298218,520.387634 1289.723633,505.616394 C1264.551392,493.044006 1250.931885,471.212341 1246.938232,443.292114 C1244.266846,424.615204 1246.741089,406.697418 1255.554199,390.181824 C1268.487671,365.944489 1288.601074,350.761261 1316.196533,347.163757 C1326.293823,345.847412 1336.663086,346.615967 1347.306152,346.653961 z" transform="matrix(1, 0, 0, 1, 0, 1.4210854715202004e-14)"/>
  <path fill="#186EB7" opacity="1.000000" stroke="none" d=" M734.823975,121.000290 C736.532471,121.839935 738.808228,122.652901 738.830261,123.522789 C739.081787,133.479706 738.990295,143.445267 738.990295,153.803833 C709.328491,153.803833 680.067383,153.803833 650.404053,153.803833 C650.404053,165.241669 650.404053,176.289429 650.404053,187.919464 C676.060303,187.919464 701.776184,187.919464 727.742432,187.919464 C727.742432,199.089142 727.742432,209.684021 727.742432,220.859131 C702.000854,220.859131 676.285034,220.859131 650.172974,220.859131 C650.172974,242.026749 650.172974,262.623108 650.172974,283.608368 C638.065613,283.608368 626.351868,283.608368 614.317139,283.608368 C614.317139,229.581802 614.317139,175.541733 614.317139,121.000061 C654.454468,121.000061 694.399475,121.000061 734.823975,121.000290 z" transform="matrix(1, 0, 0, 1, 0, 1.4210854715202004e-14)"/>
  <path fill="#186EB7" opacity="1.000000" stroke="none" d=" M1776.508057,435.810608 C1776.885620,444.350128 1776.931641,452.719635 1776.907959,461.552338 C1748.041992,462.015533 1719.245605,462.015533 1689.875122,462.015533 C1691.718018,471.594543 1696.648560,478.928253 1704.757080,482.643524 C1721.768188,490.437958 1736.689575,485.081940 1749.978760,472.845062 C1756.857178,478.901581 1763.642456,484.876038 1770.821533,491.197174 C1767.886719,497.360077 1762.700684,501.651062 1757.211060,504.778107 C1731.553711,519.392944 1705.565308,519.938416 1680.311035,503.956146 C1663.290161,493.184387 1655.712646,476.700165 1653.864502,456.880615 C1652.461792,441.838501 1654.820923,427.662170 1662.203491,414.739502 C1673.123535,395.624390 1689.461426,384.598053 1712.119141,383.947815 C1725.376709,383.567322 1737.943726,385.180298 1749.390625,392.670654 C1764.285156,402.416962 1771.582275,416.718506 1775.051392,433.540131 C1775.205200,434.285858 1775.791504,434.942444 1776.508057,435.810608 M1728.509277,416.872009 C1721.372559,411.795166 1710.711426,411.693634 1703.037231,416.475494 C1694.773438,421.624756 1691.475830,429.452637 1689.906006,438.674805 C1707.388306,438.674805 1724.077881,438.674805 1741.148560,438.674805 C1739.851807,429.664093 1736.295776,422.410828 1728.509277,416.872009 z" transform="matrix(1, 0, 0, 1, 0, 1.4210854715202004e-14)"/>
  <path fill="#186EB7" opacity="1.000000" stroke="none" d=" M1331.734497,179.394791 C1342.130615,196.142563 1345.139526,214.175385 1343.744019,234.000000 C1329.427246,234.000000 1315.022949,234.000000 1300.618652,234.000000 C1286.174072,234.000000 1271.729370,234.000000 1256.744385,234.000000 C1259.533569,245.251038 1265.530640,253.123947 1276.044312,256.395294 C1291.776489,261.290344 1305.056641,255.894424 1316.909180,244.848526 C1323.323608,250.450729 1329.733521,256.074371 1336.174316,261.662262 C1338.969116,264.087006 1336.731567,265.615479 1335.234985,267.254242 C1326.677246,276.625061 1316.236206,283.153351 1303.820068,285.473389 C1284.039551,289.169525 1264.848389,288.018768 1247.429688,276.175232 C1230.732422,264.822205 1222.745850,248.887131 1220.908203,229.097397 C1219.333740,212.142181 1222.440186,196.452759 1231.970947,182.335342 C1243.617676,165.083801 1259.750366,156.241470 1280.907227,155.849655 C1298.626831,155.521484 1314.038452,160.033798 1326.484741,173.017761 C1328.301636,174.913025 1329.863037,177.052963 1331.734497,179.394791 M1270.510132,211.000000 C1282.929565,211.000000 1295.348877,211.000000 1307.796387,211.000000 C1306.887207,196.136276 1295.586670,183.618469 1280.338623,184.996536 C1268.083740,186.104065 1256.184937,199.483017 1257.639038,211.000000 C1261.566650,211.000000 1265.540649,211.000000 1270.510132,211.000000 z" transform="matrix(1, 0, 0, 1, 0, 1.4210854715202004e-14)"/>
  <path fill="#186EB7" opacity="1.000000" stroke="none" d=" M659.723755,483.973175 C665.859985,480.507965 671.596558,477.086609 677.642212,473.480957 C683.318909,478.422974 689.473694,483.878632 695.749756,489.191040 C697.886597,490.999817 697.802917,492.555389 696.042664,494.460846 C684.360229,507.107513 670.070923,514.209595 652.754761,515.010376 C639.262329,515.634399 626.225769,514.505615 613.874756,508.066010 C596.859192,499.194397 586.286438,485.401917 582.211914,467.002502 C578.236450,449.050690 579.843323,431.347565 589.055298,415.064636 C600.035828,395.655792 616.425720,384.671814 639.247009,383.935242 C652.716003,383.500549 665.432312,385.320862 676.934021,392.953705 C691.108337,402.360168 698.494629,416.220001 701.805725,432.219238 C703.759338,441.658875 703.836853,451.486816 704.831970,461.913696 C674.930298,461.913696 646.095032,461.913696 617.170166,461.913696 C619.894592,480.674744 639.691223,490.759308 659.723755,483.973175 M621.439087,425.100677 C619.750916,429.487610 618.062683,433.874542 616.212769,438.681641 C634.377991,438.681641 651.070862,438.681641 667.775574,438.681641 C667.227173,427.951080 660.335632,416.578949 647.838562,413.337311 C638.977112,411.038727 627.595764,415.819031 621.439087,425.100677 z" transform="matrix(1, 0, 0, 1, 0, 1.4210854715202004e-14)"/>
  <path fill="#186EB7" opacity="1.000000" stroke="none" d=" M1452.813599,514.000000 C1436.010742,513.464844 1420.692505,504.602875 1416.056396,488.380280 C1409.280884,464.672150 1419.715454,442.487305 1446.655273,437.006287 C1462.779297,433.725800 1478.614990,434.801880 1494.226196,439.835327 C1496.270020,431.705017 1490.129639,420.891693 1481.758667,418.047546 C1470.725098,414.298828 1459.637573,415.755432 1448.656982,418.245331 C1443.913086,419.321014 1439.346313,421.177460 1433.862549,422.949585 C1430.914185,413.752319 1427.908325,404.375824 1424.485229,393.697601 C1434.112183,391.084961 1443.350830,387.746216 1452.879272,386.233673 C1461.804932,384.816833 1471.039429,385.020233 1480.134766,385.072235 C1494.421387,385.153839 1507.403564,389.031677 1517.421143,399.947723 C1524.196899,407.331055 1528.530396,416.391083 1528.753174,426.085175 C1529.412720,454.801270 1528.989136,483.542297 1528.989136,512.638550 C1518.339600,512.638550 1506.963013,512.638550 1495.076782,512.638550 C1495.076782,508.865692 1495.076782,505.129669 1495.076782,499.966370 C1482.521118,511.260223 1468.769287,515.517822 1452.813599,514.000000 M1494.992798,470.975250 C1494.993530,468.811890 1495.237793,466.609741 1494.901855,464.500000 C1494.707031,463.276886 1493.824951,461.526886 1492.832275,461.164856 C1481.885742,457.172363 1470.678589,456.190338 1459.553345,460.099579 C1454.028564,462.040924 1449.205688,466.100494 1449.970947,476.014282 C1450.396240,481.525421 1454.367676,486.419373 1460.187744,487.941132 C1473.143677,491.328644 1490.326538,486.907440 1494.992798,470.975250 z" transform="matrix(1, 0, 0, 1, 0, 1.4210854715202004e-14)"/>
  <path fill="#186EB7" opacity="1.000000" stroke="none" d=" M1080.000000,483.000000 C1080.000000,493.127045 1080.000000,502.754120 1080.000000,512.688049 C1068.362915,512.688049 1057.106812,512.688049 1045.149414,512.688049 C1045.149414,509.013794 1045.149414,505.174408 1045.149414,500.707733 C1040.282837,503.795929 1036.460693,506.974884 1032.082886,508.869934 C1012.241394,517.458679 992.735596,517.372681 975.393799,503.325409 C970.690186,499.515381 967.106262,492.765167 965.773743,486.751678 C964.162781,479.481201 964.159607,471.255768 965.818298,463.981171 C969.533264,447.686951 981.780457,439.998444 997.373779,437.031525 C1016.282837,433.433746 1026.891235,434.986450 1044.441284,439.753326 C1045.938354,430.964417 1039.985718,420.832153 1031.565552,418.021423 C1020.521179,414.334686 1009.455078,415.750977 998.485291,418.320038 C993.753174,419.428223 989.181213,421.220367 983.824158,422.929047 C980.904358,413.798645 977.942749,404.537384 974.633301,394.188477 C982.048950,391.780273 989.237183,388.231842 996.755005,387.276031 C1009.493958,385.656525 1022.569519,384.203552 1035.273315,385.314240 C1060.473877,387.517517 1077.022705,401.670410 1078.845703,429.243500 C1080.015869,446.943726 1079.667603,464.744354 1080.000000,483.000000 M1044.075684,461.669403 C1035.122070,457.214935 1025.456177,457.447632 1015.967346,458.199646 C1010.502930,458.632660 1005.169189,460.862549 1001.946655,466.129059 C997.486572,473.417938 999.676636,486.153534 1012.691406,488.485596 C1027.315796,491.106049 1048.681396,482.786407 1044.075684,461.669403 z" transform="matrix(1, 0, 0, 1, 0, 1.4210854715202004e-14)"/>
  <path fill="#186EB7" opacity="1.000000" stroke="none" d=" M825.951904,157.985352 C850.531494,161.920273 864.218628,178.919739 864.829285,201.543915 C865.572876,229.093185 865.006104,256.677826 865.006104,284.625580 C854.366882,284.625580 842.990295,284.625580 831.106323,284.625580 C831.106323,280.887238 831.106323,277.149750 831.106323,272.824066 C825.966553,275.988678 821.738281,279.466583 816.895142,281.420959 C797.269470,289.340454 777.979248,289.201843 761.135681,275.101166 C756.365662,271.107941 752.936523,264.175415 751.379150,257.967133 C748.342407,245.861801 749.787964,233.946396 757.801147,223.420685 C764.177002,215.045471 772.999084,211.202881 782.747314,209.066193 C798.812683,205.544846 814.695618,206.749237 830.296631,211.872116 C832.151184,203.387833 826.117981,192.859879 817.678040,190.044327 C806.474243,186.306747 795.255920,187.692581 784.131470,190.473068 C779.562012,191.615189 775.112976,193.239502 769.837585,194.885162 C766.898010,185.711609 763.888489,176.319748 760.529114,165.836105 C769.847046,163.175385 778.742371,159.544571 787.961609,158.285416 C798.899963,156.791489 810.116394,157.299866 821.214722,157.050919 C822.639771,157.018951 824.079651,157.649490 825.951904,157.985352 M793.640808,232.894989 C782.696655,238.503937 784.325928,253.324005 791.464417,257.707947 C802.844727,264.696838 824.939087,261.001495 830.505798,245.008240 C832.959839,237.957855 831.007690,233.214066 823.858582,231.489212 C813.963318,229.101746 803.987244,228.786194 793.640808,232.894989 z" transform="matrix(1, 0, 0, 1, 0, 1.4210854715202004e-14)"/>
  <path fill="#186EB7" opacity="1.000000" stroke="none" d=" M841.740234,409.444641 C842.944275,417.429779 844.739624,425.039642 844.858398,432.675568 C845.239380,457.157501 845.000000,481.649048 845.000000,506.136902 C845.000000,507.923218 845.000000,509.709503 845.000000,511.744202 C832.909851,511.744202 821.317749,511.744202 809.000000,511.744202 C809.000000,509.964172 809.000000,508.207977 809.000000,506.451752 C809.000000,486.628265 809.127380,466.803375 808.911499,446.982239 C808.856628,441.944000 807.984131,436.863953 807.007996,431.897308 C805.117249,422.277283 797.603271,415.670166 783.911499,416.942627 C776.178284,417.661407 768.242493,425.140411 767.033691,433.796814 C766.466187,437.860687 766.065430,441.983673 766.045044,446.082123 C765.945557,466.071716 766.000000,486.062042 766.000000,506.052124 C766.000000,507.845978 766.000000,509.639832 766.000000,511.714233 C753.971375,511.714233 742.378601,511.714233 730.391907,511.714233 C730.391907,470.407532 730.391907,429.041382 730.391907,387.337006 C742.045593,387.337006 753.756042,387.337006 765.985107,387.337006 C765.985107,391.513672 765.985107,395.576904 765.985107,400.464081 C771.269348,396.298401 775.632202,392.401917 780.443481,389.173828 C787.582825,384.383850 795.692810,383.526886 804.186890,383.819092 C811.062988,384.055664 817.589478,384.991577 823.655518,388.292877 C832.233704,392.961456 838.362366,399.767487 841.740234,409.444641 z" transform="matrix(1, 0, 0, 1, 0, 1.4210854715202004e-14)"/>
  <path fill="#186EB7" opacity="1.000000" stroke="none" d=" M1112.319336,145.196960 C1110.480347,149.649689 1108.933472,153.829010 1107.079102,158.839508 C1117.596069,158.839508 1126.987061,158.839508 1136.683350,158.839508 C1136.683350,168.966599 1136.683350,178.563019 1136.683350,188.743668 C1127.794189,188.743668 1118.735229,188.743668 1109.110352,188.743668 C1109.110352,220.697861 1109.110352,252.078552 1109.110352,283.726807 C1096.942993,283.726807 1085.348022,283.726807 1073.174194,283.726807 C1073.174194,252.366653 1073.174194,220.985886 1073.174194,189.205688 C1068.012207,189.205688 1063.410889,189.205688 1058.405640,189.205688 C1058.405640,179.098389 1058.405640,169.383087 1058.405640,159.081696 C1063.053833,159.081696 1067.782471,159.081696 1073.000000,159.081696 C1073.000000,154.395020 1072.932861,150.272385 1073.012451,146.152588 C1073.250610,133.836334 1077.720093,123.487137 1088.598389,117.185654 C1093.256348,114.487457 1098.971069,112.433678 1104.269775,112.278847 C1113.941040,111.996239 1123.670410,113.237099 1133.347046,114.144791 C1134.645752,114.266602 1136.795654,116.112373 1136.829834,117.213142 C1137.112427,126.339134 1136.989990,135.477676 1136.989990,145.129013 C1128.547607,143.600586 1120.531616,140.661484 1112.319336,145.196960 z" transform="matrix(1, 0, 0, 1, 0, 1.4210854715202004e-14)"/>
  <path fill="#186EB7" opacity="1.000000" stroke="none" d=" M879.503052,386.483032 C879.831482,376.000977 879.831482,365.858582 879.831482,355.359375 C892.001526,355.359375 903.714539,355.359375 915.835571,355.359375 C915.835571,365.697906 915.835571,375.965363 915.835571,386.808960 C925.939880,386.808960 935.664856,386.808960 945.688843,386.808960 C945.688843,397.312042 945.688843,407.241974 945.688843,417.755859 C936.115967,417.755859 926.390137,417.755859 916.264465,417.755859 C916.158081,419.913269 916.012268,421.515900 916.010254,423.118744 C915.992432,437.449829 915.936462,451.781433 916.048035,466.111664 C916.073547,469.380707 916.199402,472.806915 917.182861,475.870667 C918.418213,479.719147 921.687927,482.213959 925.786194,481.887726 C932.059875,481.388367 938.275391,480.156647 944.982483,479.166931 C944.982483,487.569397 945.050110,496.822571 944.877930,506.071289 C944.860657,506.996918 943.541687,508.442413 942.564697,508.718384 C935.842651,510.617157 929.121948,513.230530 922.262146,513.737244 C914.991333,514.274292 907.366455,513.585449 900.254639,511.910400 C888.201416,509.071442 881.927429,499.721466 881.258484,488.233734 C880.023315,467.020905 880.331116,445.718109 880.003967,424.452698 C879.973816,422.491577 880.000000,420.529633 880.000000,418.169128 C874.978210,418.169128 870.374146,418.169128 865.387390,418.169128 C865.387390,407.726471 865.387390,397.678314 865.387390,386.822754 C869.972229,386.822754 874.573425,386.822754 879.503052,386.483032 z" transform="matrix(1, 0, 0, 1, 0, 1.4210854715202004e-14)"/>
  <path fill="#186EB7" opacity="1.000000" stroke="none" d=" M1137.954834,341.000000 C1141.086304,341.000000 1143.724487,341.000000 1146.676025,341.000000 C1146.676025,398.042999 1146.676025,454.721863 1146.676025,511.700653 C1135.002319,511.700653 1123.412231,511.700653 1111.410156,511.700653 C1111.410156,455.130737 1111.410156,398.451324 1111.410156,341.000000 C1119.966797,341.000000 1128.714111,341.000000 1137.954834,341.000000 z" transform="matrix(1, 0, 0, 1, 0, 1.4210854715202004e-14)"/>
  <path fill="#186EB7" opacity="1.000000" stroke="none" d=" M1407.000000,214.000000 C1407.000000,237.450546 1407.000000,260.401093 1407.000000,283.674866 C1394.933716,283.674866 1383.227295,283.674866 1371.259644,283.674866 C1371.259644,226.947525 1371.259644,170.387604 1371.259644,113.413651 C1382.882324,113.413651 1394.590698,113.413651 1407.000000,113.413651 C1407.000000,146.707855 1407.000000,180.103928 1407.000000,214.000000 z" transform="matrix(1, 0, 0, 1, 0, 1.4210854715202004e-14)"/>
  <path fill="#186EB7" opacity="1.000000" stroke="none" d=" M1043.000000,174.999969 C1043.000000,181.465210 1043.000000,187.430618 1043.000000,193.487518 C1038.574707,193.962082 1034.492065,194.162003 1030.499634,194.870651 C1015.855713,197.469971 1008.157837,207.276855 1005.154358,220.944595 C1003.614868,227.950272 1003.252502,235.296341 1003.089172,242.505142 C1002.780579,256.126190 1003.000000,269.759186 1003.000000,283.691711 C991.017090,283.691711 979.423035,283.691711 967.413574,283.691711 C967.413574,242.449219 967.413574,201.080719 967.413574,159.355469 C979.007507,159.355469 990.718445,159.355469 1002.952271,159.355469 C1002.952271,165.482712 1002.952271,171.544556 1002.952271,177.606400 C1008.201782,171.360886 1012.346008,164.795868 1019.512390,160.627640 C1026.764648,156.409500 1034.253540,155.526993 1043.000000,156.229309 C1043.000000,162.320526 1043.000000,168.410339 1043.000000,174.999969 z" transform="matrix(1, 0, 0, 1, 0, 1.4210854715202004e-14)"/>
  <path fill="#186EB7" opacity="1.000000" stroke="none" d=" M1591.824341,511.999725 C1581.061279,512.000000 1570.778320,512.000000 1560.251709,512.000000 C1560.251709,470.238678 1560.251709,428.985748 1560.251709,387.366150 C1571.986206,387.366150 1583.698120,387.366150 1595.931152,387.366150 C1595.931152,393.465607 1595.931152,399.531036 1595.931152,405.596466 C1596.270020,405.891357 1596.608765,406.186279 1596.947632,406.481171 C1605.045898,390.587463 1617.241455,382.142456 1635.618042,384.264893 C1635.618042,396.612152 1635.618042,408.992523 1635.618042,421.529938 C1631.587646,421.959229 1627.504150,422.152222 1623.512695,422.862701 C1608.876831,425.467712 1601.086792,435.247437 1598.175049,448.936066 C1596.545654,456.595886 1596.303589,464.618164 1596.085327,472.495087 C1595.757568,484.315491 1595.927734,496.152405 1596.052124,507.980560 C1596.081909,510.808929 1595.620117,512.576416 1591.824341,511.999725 z" transform="matrix(1, 0, 0, 1, 0, 1.4210854715202004e-14)"/>
  <path fill="#186EB7" opacity="1.000000" stroke="none" d=" M933.000000,191.000000 C933.000000,222.106491 933.000000,252.712997 933.000000,283.659149 C920.968689,283.659149 909.264099,283.659149 897.278625,283.659149 C897.278625,242.198318 897.278625,200.852051 897.278625,159.252777 C909.090759,159.252777 920.677368,159.252777 933.000000,159.252777 C933.000000,169.674438 933.000000,180.087219 933.000000,191.000000 z" transform="matrix(1, 0, 0, 1, 0, 1.4210854715202004e-14)"/>
  <path fill="#186EB7" opacity="1.000000" stroke="none" d=" M1157.000000,218.000000 C1157.000000,198.217346 1157.000000,178.934692 1157.000000,159.326935 C1169.060181,159.326935 1180.764526,159.326935 1192.735352,159.326935 C1192.735352,200.710800 1192.735352,241.939682 1192.735352,283.584534 C1181.123657,283.584534 1169.417114,283.584534 1157.000000,283.584534 C1157.000000,261.967468 1157.000000,240.233734 1157.000000,218.000000 z" transform="matrix(1, 0, 0, 1, 0, 1.4210854715202004e-14)"/>
  <path fill="#186EB7" opacity="1.000000" stroke="none" d=" M1194.000000,128.005859 C1194.000000,134.125717 1194.000000,139.747635 1194.000000,145.682068 C1181.268921,145.682068 1168.911865,145.682068 1156.276611,145.682068 C1156.276611,135.302368 1156.276611,125.058197 1156.276611,114.405884 C1168.548828,114.405884 1180.907959,114.405884 1194.000000,114.405884 C1194.000000,118.681549 1194.000000,123.094727 1194.000000,128.005859 z" transform="matrix(1, 0, 0, 1, 0, 1.4210854715202004e-14)"/>
  <path fill="#186EB7" opacity="1.000000" stroke="none" d=" M896.000000,125.022484 C896.000000,121.230537 896.000000,117.934959 896.000000,114.321823 C908.723328,114.321823 921.080627,114.321823 933.719849,114.321823 C933.719849,124.690521 933.719849,134.935043 933.719849,145.590836 C921.457825,145.590836 909.098389,145.590836 896.000000,145.590836 C896.000000,139.003769 896.000000,132.261307 896.000000,125.022484 z" transform="matrix(1, 0, 0, 1, 0, 1.4210854715202004e-14)"/>
</svg>